<?xml version="1.0" encoding="utf-8"?>
<!-- Generator: Adobe Illustrator 27.2.0, SVG Export Plug-In . SVG Version: 6.00 Build 0)  -->
<svg version="1.1" id="Capa_1" xmlns="http://www.w3.org/2000/svg" xmlns:xlink="http://www.w3.org/1999/xlink" x="0px" y="0px"
	 viewBox="0 0 512 512" style="enable-background:new 0 0 512 512;" xml:space="preserve">
<style type="text/css">
	.st0{fill:#D30000;}
	.st1{fill:#FFFFFF;}
</style>
<g id="Language_Setting">
	<path class="st0" d="M381,224.6h-68.5c0.6-3.8,0.9-7.6,0.9-11.4V140c0-41-33.3-74.2-74.2-74.2H131C90,65.8,56.8,99,56.8,140v73.2
		c0,41,33.3,74.2,74.2,74.2h68.5c-0.6,3.8-0.9,7.6-0.9,11.4V372c0,41,33.3,74.2,74.2,74.2H381c41,0,74.2-33.3,74.2-74.2v-73.2
		C455.2,257.8,422,224.6,381,224.6z M72.8,213.2V140c0-32.1,26.1-58.2,58.2-58.2h108.1c32.1,0,58.2,26.1,58.2,58.2v73.2
		c0,32.1-26.1,58.2-58.2,58.2H131C98.9,271.4,72.8,245.3,72.8,213.2z M387,316.8h-19.5c-5.3,19-15.2,36.4-28.8,50.7
		c6.8,5.5,14.2,10.2,22,14.1l10.9,5.5c3.9,2,5.5,6.8,3.6,10.7s-6.8,5.5-10.7,3.6l-10.9-5.5c-9.5-4.7-18.4-10.6-26.6-17.3
		c-8.2,6.8-17.1,12.6-26.5,17.3l-10.9,5.5c-3.9,2-8.8,0.4-10.7-3.6s-0.4-8.8,3.6-10.7l0,0l10.9-5.5c7.8-3.9,15.1-8.6,21.9-14.1
		c-8.1-8.5-14.9-18.2-20.2-28.6c-2-3.9-0.4-8.8,3.5-10.8s8.8-0.4,10.8,3.5c4.7,9.2,10.6,17.6,17.7,25.1c10.8-11.3,19-25,23.9-39.9
		h-83.9c-4.4,0-8-3.6-8-8s3.6-8,8-8h52.1v-24.2c0-4.4,3.6-8,8-8s8,3.6,8,8v24.2H387c4.4,0,8,3.6,8,8S391.4,316.8,387,316.8
		L387,316.8z"/>
	<path class="st1" d="M199.4,133.6c-2.6-6.5-8.1-10.5-14.3-10.5s-11.7,4-14.3,10.5L136.2,219c-1.7,4.1,0.3,8.8,4.4,10.4
		c4.1,1.7,8.8-0.3,10.4-4.4l0,0l12.9-32h42.1l12.9,32c1.6,4.1,6.3,6.1,10.4,4.4s6.1-6.3,4.4-10.4c0,0,0,0,0,0L199.4,133.6z
		 M170.5,177l14.6-36.1l14.6,36.1H170.5z"/>
</g>
<image style="overflow:visible;" width="400" height="189" xlink:href="../images/logotipo.png"  transform="matrix(1 0 0 1 610 417.5)">
</image>
</svg>
