<?xml version="1.0" encoding="utf-8"?>
<!-- Generator: Adobe Illustrator 27.2.0, SVG Export Plug-In . SVG Version: 6.00 Build 0)  -->
<svg version="1.1" id="Capa_1" xmlns="http://www.w3.org/2000/svg" xmlns:xlink="http://www.w3.org/1999/xlink" x="0px" y="0px"
	 viewBox="0 0 32 32" style="enable-background:new 0 0 32 32;" xml:space="preserve">
<style type="text/css">
	.st0{fill:#D60A00;}
	.st1{fill:#FFFFFF;}
</style>
<g id="Layer_52">
	<path class="st0" d="M30,30H2c-0.6,0-1-0.4-1-1V3c0-0.6,0.4-1,1-1h28c0.6,0,1,0.4,1,1v26C31,29.6,30.6,30,30,30z M3,28h26V4H3V28z"
		/>
	<path class="st1" d="M12,23c-0.2,0-0.3,0-0.5-0.1C11.2,22.7,11,22.4,11,22V10c0-0.6,0.4-1,1-1c0.2,0,0.4,0,0.5,0.1l10,6
		c0.5,0.3,0.6,0.9,0.3,1.4c-0.1,0.1-0.2,0.3-0.3,0.3l-10,6C12.4,23,12.2,23,12,23z M13,11.8v8.5l7.1-4.2L13,11.8z"/>
</g>
</svg>
