<?xml version="1.0" encoding="utf-8"?>
<!-- Generator: Adobe Illustrator 27.2.0, SVG Export Plug-In . SVG Version: 6.00 Build 0)  -->
<svg version="1.1" id="b877c6dd-c574-4b8d-a1cd-4f83725cf5ab"
	 xmlns="http://www.w3.org/2000/svg" xmlns:xlink="http://www.w3.org/1999/xlink" x="0px" y="0px" viewBox="0 0 38 38"
	 style="enable-background:new 0 0 38 38;" xml:space="preserve">
<style type="text/css">
	.st0{fill:#D60A00;}
	.st1{fill:#FFFFFF;}
</style>
<path class="st0" d="M29.4,36.7H8.6c-2.9,0-5.2-2.4-5.3-5.3v-25c0-2.9,2.4-5.2,5.3-5.3h13.3c1.4,0,2.7,0.6,3.7,1.5l7.5,7.5
	c1,1,1.5,2.3,1.5,3.7v17.4C34.7,34.4,32.3,36.7,29.4,36.7z M8.6,3.8C7.1,3.8,5.8,5,5.8,6.5v25c0,1.5,1.2,2.8,2.8,2.8h20.9
	c1.5,0,2.7-1.2,2.8-2.8V14c0-0.7-0.3-1.4-0.8-2l-7.5-7.5c-0.5-0.5-1.2-0.8-2-0.8H8.6z"/>
<path class="st0" d="M32.3,13.7h-4.7c-2.9,0-5.2-2.3-5.2-5.2v-6h2.5v6c0,1.5,1.2,2.7,2.7,2.7h4.7V13.7z"/>
<path class="st1" d="M13.8,24.7c-0.1,0-0.2,0-0.3-0.1c-0.1-0.1-0.2-0.1-0.3-0.2l-3.9-2.3C9.2,22,9.2,22,9.1,21.9
	c0-0.1-0.1-0.2-0.1-0.3c0-0.1,0-0.2,0.1-0.3c0-0.1,0.1-0.2,0.2-0.2l3.9-2.2c0.1-0.1,0.2-0.1,0.3-0.1c0.1,0,0.2-0.1,0.3-0.1
	c0.2,0,0.3,0.1,0.4,0.2c0.1,0.1,0.2,0.3,0.2,0.5c0,0.1,0,0.2-0.1,0.2c0,0.1-0.1,0.2-0.2,0.2L10,22.1l-0.1-1.2l4.2,2.5
	c0.1,0,0.2,0.1,0.2,0.2c0,0.1,0.1,0.2,0.1,0.3c0,0.2-0.1,0.4-0.2,0.5C14.1,24.6,14,24.6,13.8,24.7z"/>
<path class="st1" d="M13.8,24.9c-0.1,0-0.3,0-0.4-0.1c-0.1-0.1-0.2-0.1-0.3-0.2l-3.9-2.3C9.1,22.2,9,22.1,8.9,22
	c-0.1-0.1-0.1-0.3-0.1-0.4c0-0.1,0-0.3,0.1-0.4C9,21,9.1,20.9,9.2,20.8l3.9-2.2c0.1-0.1,0.2-0.1,0.3-0.2c0.3-0.2,0.8-0.1,1,0.2
	c0.2,0.2,0.3,0.4,0.3,0.7c0,0.1,0,0.3-0.1,0.4c-0.1,0.1-0.2,0.2-0.3,0.3l-2.8,1.6l2.8,1.7c0.1,0.1,0.2,0.2,0.3,0.3
	c0.1,0.1,0.1,0.2,0.1,0.4c0,0.3-0.1,0.5-0.3,0.7C14.3,24.8,14.1,24.9,13.8,24.9z M10.2,22.3l3.2,1.9c0.1,0.1,0.2,0.1,0.3,0.2
	c0.1,0.1,0.3,0,0.4-0.1c0.1-0.1,0.1-0.2,0.1-0.3c0-0.1,0-0.1,0-0.1c0,0-0.1-0.1-0.1-0.1L11,21.8L10.2,22.3z M9.7,21.1l-0.2,0.1
	c-0.1,0-0.1,0.1-0.1,0.1c0,0.1,0,0.1,0,0.2c0,0.1,0,0.1,0,0.2c0,0.1,0.1,0.1,0.1,0.1l0.3,0.2L9.7,21.1z M10.2,21.4l0,0.3l0.3-0.2
	L10.2,21.4z M10.2,20.8l0.8,0.5l3.1-1.8c0,0,0.1-0.1,0.1-0.1c0,0,0-0.1,0-0.1c0-0.1-0.1-0.2-0.1-0.3c-0.1-0.2-0.2-0.2-0.3-0.2
	c-0.1,0-0.1,0-0.2,0c-0.1,0-0.2,0.1-0.3,0.1L10.2,20.8z"/>
<path class="st1" d="M16.6,26.3c-0.2,0-0.3-0.1-0.4-0.2C16.1,26,16,25.8,16,25.7c0-0.1,0-0.2,0.1-0.3l4.9-10
	c0.1-0.1,0.1-0.2,0.2-0.3c0.1-0.1,0.2-0.1,0.3-0.1c0.2,0,0.3,0.1,0.4,0.2c0.1,0.1,0.2,0.3,0.2,0.4c0,0.1,0,0.2-0.1,0.3l-4.9,10
	c-0.1,0.1-0.1,0.2-0.2,0.3C16.9,26.2,16.8,26.3,16.6,26.3z"/>
<path class="st1" d="M16.6,26.5c-0.2,0-0.4-0.1-0.6-0.2c-0.2-0.1-0.3-0.4-0.3-0.6c0-0.1,0-0.3,0.1-0.4l4.9-10
	c0.1-0.1,0.2-0.3,0.3-0.4c0.3-0.2,0.7-0.2,1,0.1c0.2,0.2,0.3,0.4,0.3,0.6c0,0.1,0,0.3-0.1,0.4l-4.9,10c-0.1,0.1-0.2,0.3-0.3,0.4
	C17,26.5,16.8,26.5,16.6,26.5z M21.5,15.3c-0.1,0-0.1,0-0.2,0.1c-0.1,0-0.1,0.1-0.1,0.2l-4.9,10c0,0.1,0,0.1,0,0.2
	c0,0.1,0,0.2,0.1,0.2c0.2,0.1,0.3,0.1,0.4,0.1c0.1,0,0.1-0.1,0.1-0.2l4.9-10c0-0.1,0-0.1,0-0.2c0-0.1,0-0.2-0.1-0.2
	C21.7,15.3,21.6,15.3,21.5,15.3z"/>
<path class="st1" d="M24.3,24.7c-0.2,0-0.3-0.1-0.4-0.2c-0.1-0.1-0.2-0.3-0.2-0.5c0-0.1,0-0.2,0.1-0.2c0.1-0.1,0.1-0.1,0.2-0.2
	l4.2-2.4l0.1,1.2l-4.2-2.5c-0.1,0-0.2-0.1-0.2-0.2c0-0.1-0.1-0.2-0.1-0.3c0-0.2,0.1-0.4,0.2-0.5c0.1-0.1,0.2-0.2,0.4-0.2
	c0.1,0,0.2,0,0.3,0.1c0.1,0.1,0.2,0.1,0.3,0.2l3.9,2.3c0.1,0.1,0.2,0.1,0.2,0.2c0.1,0.2,0.1,0.4,0,0.6c0,0.1-0.1,0.2-0.2,0.2
	l-3.9,2.2c-0.1,0.1-0.2,0.1-0.3,0.1C24.5,24.6,24.4,24.7,24.3,24.7z"/>
<path class="st1" d="M24.3,24.9c-0.2,0-0.5-0.1-0.6-0.3c-0.2-0.2-0.3-0.4-0.3-0.7c0-0.1,0-0.3,0.1-0.4c0.1-0.1,0.2-0.2,0.3-0.3
	l2.8-1.6L23.8,20c-0.1-0.1-0.2-0.2-0.3-0.3c-0.1-0.1-0.1-0.2-0.1-0.4c0-0.3,0.1-0.5,0.3-0.7c0.2-0.3,0.7-0.4,1-0.2
	c0.1,0.1,0.2,0.1,0.3,0.2l3.9,2.3c0.1,0.1,0.2,0.2,0.3,0.3c0.1,0.1,0.1,0.3,0.1,0.4c0,0.1,0,0.3-0.1,0.4c-0.1,0.1-0.2,0.3-0.3,0.3
	L25,24.7c-0.1,0.1-0.2,0.1-0.3,0.2C24.6,24.9,24.4,24.9,24.3,24.9z M27.1,21.9L24,23.7c0,0-0.1,0.1-0.1,0.1c0,0,0,0.1,0,0.1
	c0,0.1,0.1,0.2,0.1,0.3c0.1,0.2,0.2,0.2,0.3,0.2c0.1,0,0.1,0,0.2,0c0.1,0,0.2-0.1,0.3-0.1l3.1-1.8L27.1,21.9z M28.3,21.1l0.1,1
	l0.2-0.1c0.1,0,0.1-0.1,0.1-0.1c0.1-0.1,0.1-0.3,0-0.4c0-0.1-0.1-0.1-0.1-0.1L28.3,21.1z M27.6,21.7l0.3,0.2l0-0.3L27.6,21.7z
	 M24.3,18.8c-0.1,0-0.2,0.1-0.2,0.1c-0.1,0.1-0.1,0.2-0.1,0.3c0,0.1,0,0.1,0,0.1c0,0,0.1,0.1,0.1,0.1l3.1,1.8l0.8-0.5L24.7,19
	c-0.1-0.1-0.2-0.1-0.3-0.2C24.4,18.8,24.3,18.8,24.3,18.8z"/>
<image style="overflow:visible;" width="400" height="189" xlink:href="../images/logotipo.png"  transform="matrix(1 0 0 1 -498 -86.3851)">
</image>
</svg>
